<svg width="89" height="27" viewBox="0 0 89 27" fill="none" xmlns="http://www.w3.org/2000/svg">
<path id="image 148 (Traced)" fill-rule="evenodd" clip-rule="evenodd" d="M8.26707 0.276952C3.68397 1.39194 0.478063 5.09877 0.0408444 9.78951C-0.419907 14.7295 3.06707 19.5839 7.9948 20.8631C9.12766 21.1572 13.1101 21.1991 39.923 21.1991H70.5569V20.6691C70.5569 20.3776 70.617 19.9831 70.6904 19.7924C70.8118 19.4772 68.0691 19.4456 40.5901 19.4456C21.2011 19.4456 9.93721 19.3665 9.18792 19.2247C7.3845 18.8839 5.78231 18.0442 4.50629 16.7709C0.198534 12.4721 1.32193 5.60157 6.79839 2.75328L8.20703 2.02056H42.406H76.605L77.9127 2.66057C79.1592 3.27056 81.2488 5.07093 81.7076 5.93035C81.9011 6.29353 82.0124 6.30646 82.8307 6.06207L83.7388 5.79095L83.361 5.13778C82.2376 3.19669 80.0829 1.45156 77.6868 0.541945L76.3851 0.047906L42.9558 0.00932971C14.9762 -0.0231094 9.32119 0.0205081 8.26707 0.276952ZM23.932 7.09509C22.3307 7.62091 21.8783 8.41303 21.8743 10.6985C21.8695 13.5404 22.9704 14.5901 25.6784 14.3253C27.8579 14.1122 28.6734 12.9133 28.4898 10.1921C28.3739 8.47638 27.9527 7.70485 26.8909 7.26254C26.1691 6.96204 24.6067 6.87349 23.932 7.09509ZM30.8212 7.25816C29.7997 7.72129 29.3849 8.50619 29.271 10.1921C29.0873 12.9133 29.9028 14.1122 32.0823 14.3253C34.7006 14.5813 35.8341 13.5715 35.8677 10.9523C35.8913 9.13371 35.5271 7.983 34.772 7.49005C33.9939 6.98177 31.7249 6.84872 30.8212 7.25816ZM54.722 7.32369C53.6659 7.86639 53.1832 8.91891 53.1832 10.6783C53.1832 13.3295 54.3268 14.5028 56.7592 14.3474C58.9994 14.2043 59.774 13.2616 59.774 10.6783C59.774 8.86718 59.5323 8.20393 58.6286 7.53543C57.7806 6.9079 55.7456 6.79765 54.722 7.32369ZM15.1348 10.6783V14.1852H17.664C19.9 14.1852 20.2442 14.1344 20.633 13.7469C21.4545 12.9282 21.147 10.9705 20.1421 10.6202C19.9343 10.5479 19.9607 10.4135 20.2455 10.0931C20.8851 9.37372 20.9521 8.45205 20.4144 7.77061C19.9506 7.18298 19.8945 7.17136 17.538 7.17136H15.1348V10.6783ZM36.9078 10.6783V14.1852H37.9969H39.0862L39.1579 12.8153L39.2294 11.4454L39.8799 12.8153L40.5305 14.1852H41.7528H42.9754L42.1137 12.3892L41.252 10.5933L42.0491 8.98839C42.4872 8.10552 42.8459 7.33553 42.8459 7.27723C42.8459 7.21914 42.3222 7.17136 41.682 7.17136H40.5184L39.8676 8.43167L39.217 9.69197L39.1511 8.43167L39.0851 7.17136H37.9964H36.9078V10.6783ZM45.7049 10.6783V14.1852H46.9036H48.1022L48.1682 12.9249L48.2341 11.6646L49.0901 12.9249C49.9351 14.1692 49.9595 14.1852 51.0145 14.1852H52.0829V10.6783V7.17136H50.9938H49.9045L49.8392 8.53644L49.7736 9.90151L48.8939 8.53841L48.0142 7.17509L46.8596 7.17333L45.7049 7.17136V10.6783ZM60.8638 10.6783L61.4167 14.1852H62.8887H64.3609L64.6725 12.8153L64.9844 11.4454L65.2701 12.8153L65.5557 14.1852H67.0667C67.8978 14.1852 68.5776 14.1381 68.5776 14.0805C68.5776 13.911 69.4573 8.43342 69.5906 7.77412C69.7113 7.17531 69.7043 7.17136 68.5105 7.17136H67.3086L67.0016 9.19881L66.6945 11.2263L66.287 9.18763L65.8795 7.149L64.9824 7.21498L64.0855 7.28095L63.7226 9.09557C63.5229 10.0937 63.3087 10.9613 63.2463 11.0235C63.1838 11.0855 63.0637 10.4663 62.9795 9.64704C62.7189 7.11613 62.753 7.17136 61.4514 7.17136H60.3111L60.8638 10.6783ZM18.5437 9.2536C18.5437 9.54139 18.3737 9.71608 18.0489 9.76211C17.6429 9.81953 17.554 9.72813 17.554 9.2536C17.554 8.77907 17.6429 8.68767 18.0489 8.7451C18.3737 8.79113 18.5437 8.96582 18.5437 9.2536ZM26.0855 10.6235L26.0213 12.3222L25.0866 12.3895L24.1519 12.457V11.0375C24.1519 9.10127 24.2465 8.92483 25.2843 8.92483H26.1497L26.0855 10.6235ZM33.6088 10.3315C33.6088 12.2509 33.5121 12.4318 32.4857 12.4318H31.6295V10.8245C31.6295 9.9403 31.6955 9.15124 31.7762 9.07102C31.8567 8.99058 32.302 8.92483 32.7659 8.92483H33.6088V10.3315ZM57.3612 10.6783V12.4318H56.4815H55.6018V10.8245C55.6018 9.9403 55.6677 9.15124 55.7485 9.07102C55.8289 8.99058 56.2248 8.92483 56.6282 8.92483H57.3612V10.6783ZM77.1517 9.25733C76.9012 9.55827 76.9446 9.78819 77.4436 10.8021C77.9195 11.7694 78.1328 11.9934 78.5778 11.9934C79.3987 11.9934 79.5245 11.1465 78.8775 9.97515C78.3138 8.95486 77.6378 8.67364 77.1517 9.25733ZM82.9227 9.19881C82.5591 9.64331 82.1419 11.2729 82.2921 11.6629C82.3845 11.9033 82.6313 11.9998 83.0353 11.9533C83.5444 11.8948 83.7052 11.7021 84.0536 10.7335C84.3878 9.80441 84.4145 9.52013 84.193 9.25404C83.8596 8.85381 83.2275 8.8262 82.9227 9.19881ZM18.7636 11.9934C18.7636 12.4283 18.6387 12.5556 18.1588 12.6106C17.613 12.6733 17.554 12.6132 17.554 11.9934C17.554 11.3735 17.613 11.3135 18.1588 11.3762C18.6387 11.4312 18.7636 11.5585 18.7636 11.9934ZM86.7657 13.5483C85.813 14.0493 85.5623 14.4842 85.9544 14.9552C86.3267 15.4024 87.0252 15.3625 87.8764 14.8452C88.6848 14.354 88.8157 13.6629 88.1658 13.3162C87.6476 13.0398 87.7714 13.0194 86.7657 13.5483ZM73.275 13.858C73.0454 14.4544 73.4433 14.8724 74.6898 15.3445C75.6338 15.702 75.8902 15.7276 76.1737 15.4933C77.0262 14.7882 76.0668 13.8242 74.274 13.5847C73.5981 13.4944 73.3936 13.5503 73.275 13.858ZM79.631 14.24C79.5109 14.3915 79.3508 16.9325 79.2727 19.9217C79.1485 24.6784 79.1731 25.371 79.4784 25.6752C79.6693 25.8655 79.8742 26.0211 79.9341 26.0211C80.2329 26.0211 81.0865 25.4519 81.7863 24.7862L82.5688 24.0415L83.2064 25.371C83.5572 26.1022 83.9687 26.8036 84.1211 26.9296C84.4582 27.2087 86.1904 26.6063 86.716 26.0273C87.0327 25.6785 87.0059 25.522 86.3969 24.1695C86.0314 23.3572 85.732 22.6661 85.732 22.6341C85.732 22.6019 86.2929 22.5179 86.9784 22.4473C88.3149 22.3099 89.1946 21.7212 88.963 21.1193C88.7389 20.5378 80.5336 13.966 80.0315 13.966C79.9305 13.966 79.7502 14.0894 79.631 14.24ZM74.7919 19.0634C73.7837 19.5681 73.4431 20.1553 73.8647 20.6617C74.2335 21.1046 74.5856 21.0632 75.8425 20.4282C76.6905 19.9999 76.9349 19.7602 76.9349 19.3558C76.9349 18.4639 76.1917 18.3626 74.7919 19.0634Z" fill="black"/>
</svg>
