<svg width="17" height="17" viewBox="0 0 17 17" fill="none" xmlns="http://www.w3.org/2000/svg">
<g id="Icons/copyright-line" clip-path="url(#clip0_13_4432)">
<g id="Group">
<path id="Vector" d="M8.49984 1.41675C12.4098 1.41675 15.5832 4.59008 15.5832 8.50008C15.5832 12.4101 12.4098 15.5834 8.49984 15.5834C4.58984 15.5834 1.4165 12.4101 1.4165 8.50008C1.4165 4.59008 4.58984 1.41675 8.49984 1.41675ZM8.49984 2.83341C5.369 2.83341 2.83317 5.36925 2.83317 8.50008C2.83317 11.6309 5.369 14.1667 8.49984 14.1667C11.6307 14.1667 14.1665 11.6309 14.1665 8.50008C14.1665 5.36925 11.6307 2.83341 8.49984 2.83341ZM8.49984 4.95842C9.789 4.95842 10.9174 5.64762 11.5372 6.67825L10.3231 7.40712C10.132 7.08855 9.86078 6.82562 9.53641 6.64456C9.21204 6.46351 8.84587 6.37065 8.47442 6.37524C8.10297 6.37984 7.73921 6.48173 7.41942 6.67075C7.09962 6.85978 6.83497 7.12934 6.65185 7.45254C6.46872 7.77575 6.37352 8.14132 6.37575 8.51279C6.37797 8.88426 6.47753 9.24867 6.66451 9.56966C6.85149 9.89065 7.11935 10.157 7.44138 10.3422C7.76341 10.5274 8.12836 10.6249 8.49984 10.6251C8.86685 10.6253 9.22766 10.5304 9.54707 10.3497C9.86649 10.1689 10.1336 9.90849 10.3224 9.59375L11.5372 10.3219C11.1391 10.9868 10.5339 11.5027 9.81445 11.7905C9.09498 12.0784 8.30095 12.1223 7.55414 11.9155C6.80733 11.7087 6.14898 11.2626 5.68006 10.6457C5.21114 10.0287 4.95755 9.275 4.95817 8.50008C4.95817 6.54508 6.54484 4.95842 8.49984 4.95842Z" fill="white"/>
</g>
</g>
<defs>
<clipPath id="clip0_13_4432">
<rect width="17" height="17" fill="white"/>
</clipPath>
</defs>
</svg>
