<svg width="37" height="37" viewBox="0 0 37 37" fill="none" xmlns="http://www.w3.org/2000/svg">
<g id="instagram (11) 1">
<path id="Vector" d="M26.7327 8.41742C26.3668 8.41742 26.0091 8.52592 25.7049 8.7292C25.4006 8.93248 25.1635 9.22141 25.0235 9.55945C24.8835 9.8975 24.8468 10.2695 24.9182 10.6283C24.9896 10.9872 25.1658 11.3168 25.4245 11.5756C25.6832 11.8343 26.0129 12.0105 26.3717 12.0819C26.7306 12.1533 27.1026 12.1166 27.4406 11.9766C27.7787 11.8366 28.0676 11.5995 28.2709 11.2952C28.4742 10.991 28.5827 10.6333 28.5827 10.2674C28.5827 9.77677 28.3878 9.30621 28.0408 8.95927C27.6939 8.61233 27.2233 8.41742 26.7327 8.41742ZM33.8243 12.1483C33.7943 10.8691 33.5548 9.60358 33.1152 8.402C32.7232 7.37391 32.1131 6.44297 31.3268 5.67325C30.5634 4.88303 29.6303 4.27677 28.5981 3.90034C27.3997 3.44733 26.1327 3.20228 24.8518 3.17575C23.2177 3.08325 22.6935 3.08325 18.5002 3.08325C14.3068 3.08325 13.7827 3.08325 12.1485 3.17575C10.8676 3.20228 9.60065 3.44733 8.40225 3.90034C7.37191 4.28059 6.4396 4.88632 5.6735 5.67325C4.88328 6.43665 4.27702 7.36976 3.90058 8.402C3.44758 9.60041 3.20253 10.8674 3.176 12.1483C3.0835 13.7824 3.0835 14.3066 3.0835 18.4999C3.0835 22.6933 3.0835 23.2174 3.176 24.8516C3.20253 26.1325 3.44758 27.3994 3.90058 28.5978C4.27702 29.6301 4.88328 30.5632 5.6735 31.3266C6.4396 32.1135 7.37191 32.7193 8.40225 33.0995C9.60065 33.5525 10.8676 33.7976 12.1485 33.8241C13.7827 33.9166 14.3068 33.9166 18.5002 33.9166C22.6935 33.9166 23.2177 33.9166 24.8518 33.8241C26.1327 33.7976 27.3997 33.5525 28.5981 33.0995C29.6303 32.7231 30.5634 32.1168 31.3268 31.3266C32.1165 30.5597 32.7272 29.628 33.1152 28.5978C33.5548 27.3963 33.7943 26.1307 33.8243 24.8516C33.8243 23.2174 33.9168 22.6933 33.9168 18.4999C33.9168 14.3066 33.9168 13.7824 33.8243 12.1483ZM31.0493 24.6666C31.0381 25.6452 30.8609 26.6148 30.5252 27.5341C30.279 28.205 29.8836 28.8112 29.3689 29.307C28.8689 29.8165 28.2639 30.2111 27.596 30.4633C26.6767 30.799 25.7071 30.9762 24.7285 30.9874C23.1868 31.0645 22.6164 31.0799 18.5618 31.0799C14.5072 31.0799 13.9368 31.0799 12.3952 30.9874C11.379 31.0064 10.3672 30.85 9.40433 30.5249C8.76574 30.2599 8.1885 29.8663 7.7085 29.3687C7.1968 28.8734 6.80638 28.2667 6.56766 27.5958C6.19127 26.6633 5.98251 25.6717 5.951 24.6666C5.951 23.1249 5.8585 22.5545 5.8585 18.4999C5.8585 14.4453 5.8585 13.8749 5.951 12.3333C5.95791 11.3328 6.14054 10.3413 6.49058 9.40409C6.76199 8.75337 7.17857 8.17331 7.7085 7.70825C8.17688 7.17818 8.75573 6.75719 9.40433 6.47492C10.3441 6.13582 11.3345 5.95858 12.3335 5.95075C13.8752 5.95075 14.4456 5.85825 18.5002 5.85825C22.5547 5.85825 23.1252 5.85825 24.6668 5.95075C25.6454 5.96198 26.615 6.13922 27.5343 6.47492C28.2349 6.73492 28.8637 7.15764 29.3689 7.70825C29.8741 8.18182 30.2689 8.7608 30.5252 9.40409C30.8678 10.3429 31.0452 11.3339 31.0493 12.3333C31.1264 13.8749 31.1418 14.4453 31.1418 18.4999C31.1418 22.5545 31.1264 23.1249 31.0493 24.6666ZM18.5002 10.5912C16.9366 10.5942 15.4091 11.0606 14.1105 11.9315C12.8119 12.8024 11.8007 14.0386 11.2044 15.484C10.6082 16.9294 10.4538 18.5191 10.7607 20.0523C11.0676 21.5854 11.822 22.9932 12.9287 24.0977C14.0354 25.2022 15.4446 25.9539 16.9783 26.2578C18.512 26.5617 20.1014 26.4042 21.5457 25.8052C22.9899 25.2061 24.2242 24.1924 25.0925 22.8922C25.9609 21.5919 26.4243 20.0635 26.4243 18.4999C26.4264 17.4595 26.2227 16.4289 25.825 15.4674C25.4273 14.5059 24.8434 13.6326 24.107 12.8976C23.3706 12.1626 22.4961 11.5804 21.5339 11.1846C20.5716 10.7888 19.5406 10.5871 18.5002 10.5912ZM18.5002 23.6337C17.4848 23.6337 16.4922 23.3326 15.648 22.7685C14.8038 22.2044 14.1458 21.4026 13.7572 20.4645C13.3686 19.5265 13.267 18.4942 13.4651 17.4984C13.6631 16.5025 14.1521 15.5878 14.8701 14.8698C15.588 14.1518 16.5028 13.6629 17.4986 13.4648C18.4945 13.2667 19.5267 13.3684 20.4648 13.757C21.4028 14.1455 22.2046 14.8035 22.7687 15.6478C23.3328 16.492 23.6339 17.4846 23.6339 18.4999C23.6339 19.1741 23.5011 19.8417 23.2431 20.4645C22.9851 21.0874 22.607 21.6533 22.1303 22.13C21.6536 22.6067 21.0876 22.9849 20.4648 23.2429C19.8419 23.5009 19.1743 23.6337 18.5002 23.6337Z" fill="white"/>
</g>
</svg>
