<svg width="19" height="19" viewBox="0 0 19 19" fill="none" xmlns="http://www.w3.org/2000/svg">
<g id="mobile (11) 1" opacity="0.6">
<path id="Vector" d="M10.0622 12.8964L9.9435 12.8014C9.89936 12.7715 9.85144 12.7475 9.801 12.7302L9.6585 12.6668C9.53011 12.64 9.39706 12.6455 9.27131 12.6828C9.14556 12.7201 9.03105 12.7881 8.93808 12.8806C8.86815 12.9575 8.81192 13.0459 8.77183 13.1418C8.71192 13.2861 8.69601 13.4448 8.72612 13.5981C8.75622 13.7513 8.83099 13.8923 8.94101 14.0031C9.05103 14.114 9.19138 14.1899 9.34441 14.2211C9.49744 14.2524 9.6563 14.2377 9.801 14.1789C9.8956 14.133 9.98349 14.0744 10.0622 14.0047C10.1721 13.8934 10.2465 13.752 10.2761 13.5985C10.3057 13.4449 10.2891 13.286 10.2285 13.1418C10.189 13.0503 10.1326 12.967 10.0622 12.8964ZM12.6668 1.5835H6.3335C5.70361 1.5835 5.09952 1.83372 4.65412 2.27912C4.20872 2.72452 3.9585 3.32861 3.9585 3.9585V15.0418C3.9585 15.6717 4.20872 16.2758 4.65412 16.7212C5.09952 17.1666 5.70361 17.4168 6.3335 17.4168H12.6668C13.2967 17.4168 13.9008 17.1666 14.3462 16.7212C14.7916 16.2758 15.0418 15.6717 15.0418 15.0418V3.9585C15.0418 3.32861 14.7916 2.72452 14.3462 2.27912C13.9008 1.83372 13.2967 1.5835 12.6668 1.5835ZM13.4585 15.0418C13.4585 15.2518 13.3751 15.4532 13.2266 15.6016C13.0782 15.7501 12.8768 15.8335 12.6668 15.8335H6.3335C6.12353 15.8335 5.92217 15.7501 5.7737 15.6016C5.62524 15.4532 5.54183 15.2518 5.54183 15.0418V3.9585C5.54183 3.74853 5.62524 3.54717 5.7737 3.3987C5.92217 3.25024 6.12353 3.16683 6.3335 3.16683H12.6668C12.8768 3.16683 13.0782 3.25024 13.2266 3.3987C13.3751 3.54717 13.4585 3.74853 13.4585 3.9585V15.0418Z" fill="black"/>
</g>
</svg>
