<svg width="51" height="51" viewBox="0 0 51 51" fill="none" xmlns="http://www.w3.org/2000/svg">
<g id="Group 134">
<circle id="Ellipse 104" cx="25.5" cy="25.5" r="25.5" fill="#D1EAF9"/>
<path id="Vector" fill-rule="evenodd" clip-rule="evenodd" d="M24.5964 19.5035L23.9639 21.5845C23.5121 21.7654 22.7893 22.0369 22.2471 22.6702C21.3436 23.7559 21.3436 24.1178 21.3436 24.1178H15.2896C15.1992 23.9369 15.1992 23.8464 15.1089 23.6654C14.5667 22.3083 13.6631 22.3083 13.0306 23.6654C12.9403 23.8464 12.9403 23.9369 12.9403 24.1178H3.18164C3.18164 24.1178 2.72985 24.6607 3.00092 25.2035C3.09128 25.3845 7.24774 26.3797 11.7656 27.3749C11.5849 27.7369 11.4946 28.0988 11.4946 28.4607C11.4946 29.9083 12.6692 31.0845 14.1149 31.0845C15.5607 31.0845 16.645 29.9083 16.645 28.4607C18.7232 28.913 20.6207 29.2749 21.7953 29.5464C23.9639 32.894 27.0361 32.894 29.2047 29.5464C30.3793 29.2749 32.2769 28.913 34.3551 28.4607C34.3551 29.9083 35.4394 31.0845 36.8851 31.0845C38.3308 31.0845 39.5055 29.9083 39.5055 28.4607C39.5055 28.0988 39.4151 27.7369 39.2344 27.3749C43.7523 26.3797 47.9088 25.3845 47.9991 25.2035C48.2702 24.6607 47.8184 24.1178 47.8184 24.1178H38.1501C38.0598 23.9369 38.0598 23.8464 37.9694 23.6654C37.4273 22.3083 36.5237 22.3083 35.8912 23.6654C35.8008 23.8464 35.8008 23.9369 35.8008 24.1178H29.6565C29.6565 24.1178 29.6565 23.7559 28.7529 22.6702C28.2108 22.0369 27.4879 21.7654 27.0361 21.5845L26.4036 19.5035C26.1325 17.7845 24.8675 17.7845 24.5964 19.5035ZM25.4097 29.0035C23.6929 28.913 22.97 26.9226 22.8796 26.5607C22.7893 25.8369 23.6929 25.8369 24.1447 25.8369H25.4097H25.5904H26.8554C27.3072 25.8369 28.2108 25.8369 28.1204 26.5607C28.03 26.9226 27.3072 28.913 25.5904 29.0035H25.5H25.4097ZM14.1149 27.013C13.3017 27.013 12.5789 27.6464 12.5789 28.4607C12.5789 29.2749 13.3017 29.9083 14.1149 29.9083C14.9282 29.9083 15.5607 29.2749 15.5607 28.4607C15.5607 27.6464 14.9282 27.013 14.1149 27.013ZM36.8851 27.013C37.6983 27.013 38.4212 27.6464 38.4212 28.4607C38.4212 29.2749 37.6983 29.9083 36.8851 29.9083C36.0719 29.9083 35.4394 29.2749 35.4394 28.4607C35.4394 27.6464 36.0719 27.013 36.8851 27.013Z" fill="#175FEB"/>
<g id="Vector_2">
<path d="M25.4097 29.0035C23.6929 28.913 22.97 26.9226 22.8796 26.5607C22.7893 25.8369 23.6929 25.8369 24.1447 25.8369H25.4097H25.5904H26.8554C27.3072 25.8369 28.2108 25.8369 28.1204 26.5607C28.03 26.9226 27.3072 28.913 25.5904 29.0035H25.5H25.4097Z" fill="#F4B045"/>
<path d="M36.8851 27.013C37.6983 27.013 38.4212 27.6464 38.4212 28.4607C38.4212 29.2749 37.6983 29.9083 36.8851 29.9083C36.0719 29.9083 35.4394 29.2749 35.4394 28.4607C35.4394 27.6464 36.0719 27.013 36.8851 27.013Z" fill="#F4B045"/>
<path d="M14.1149 27.013C13.3017 27.013 12.5789 27.6464 12.5789 28.4607C12.5789 29.2749 13.3017 29.9083 14.1149 29.9083C14.9282 29.9083 15.5607 29.2749 15.5607 28.4607C15.5607 27.6464 14.9282 27.013 14.1149 27.013Z" fill="#F4B045"/>
</g>
</g>
</svg>
