<svg width="51" height="51" viewBox="0 0 51 51" fill="none" xmlns="http://www.w3.org/2000/svg">
<g id="Group 136">
<circle id="Ellipse 106" cx="25.5" cy="25.5" r="25.5" fill="#D1EAF9"/>
<g id="Layer 2">
<path id="Vector" d="M36.089 21.2004C35.7566 20.8652 35.5693 20.4128 35.5675 19.9408V18.3502C35.5661 17.3832 35.1813 16.4562 34.4974 15.7725C33.8135 15.0888 32.8864 14.7044 31.9194 14.7034H30.3312C30.0974 14.704 29.8657 14.6583 29.6495 14.569C29.4333 14.4798 29.2369 14.3486 29.0717 14.1831L27.715 12.8252C27.0304 12.1424 26.103 11.7589 25.1361 11.7589C24.1692 11.7589 23.2418 12.1424 22.5572 12.8252L21.2005 14.1831C21.0354 14.3488 20.839 14.4802 20.6229 14.5697C20.4067 14.6592 20.1749 14.7051 19.941 14.7046H18.3516C17.3846 14.7056 16.4574 15.0901 15.7735 15.7737C15.0896 16.4574 14.7048 17.3844 14.7035 18.3514V19.9408C14.7022 20.4123 14.5153 20.8644 14.1832 21.1992L12.8241 22.5571C12.1413 23.2416 11.7578 24.1691 11.7578 25.136C11.7578 26.1029 12.1413 27.0303 12.8241 27.7149L14.1832 29.0715C14.5156 29.4067 14.7029 29.8591 14.7048 30.3311V31.9218C14.7061 32.8888 15.0909 33.8158 15.7748 34.4994C16.4587 35.1831 17.3858 35.5676 18.3528 35.5686H19.941C20.1749 35.5681 20.4067 35.614 20.6229 35.7035C20.839 35.793 21.0354 35.9244 21.2005 36.0901L22.5572 37.448C23.2416 38.1311 24.1691 38.5148 25.1361 38.5148C26.1031 38.5148 27.0306 38.1311 27.715 37.448L29.0717 36.0901C29.2368 35.9244 29.4332 35.793 29.6493 35.7035C29.8655 35.614 30.0973 35.5681 30.3312 35.5686H31.9207C32.8877 35.5676 33.8148 35.1831 34.4987 34.4994C35.1826 33.8158 35.5674 32.8888 35.5687 31.9218V30.3311C35.5698 29.8593 35.7572 29.407 36.0902 29.0728L37.4481 27.7149C38.1309 27.0303 38.5144 26.1029 38.5144 25.136C38.5144 24.1691 38.1309 23.2416 37.4481 22.5571L36.089 21.2004Z" fill="#174EB6"/>
<path id="Vector_2" d="M25.1357 33.5372C29.7756 33.5372 33.5371 29.7758 33.5371 25.1358C33.5371 20.4959 29.7756 16.7345 25.1357 16.7345C20.4958 16.7345 16.7344 20.4959 16.7344 25.1358C16.7344 29.7758 20.4958 33.5372 25.1357 33.5372Z" fill="#F4B045"/>
<path id="Vector_3" d="M23.8914 28.5586C23.7688 28.5589 23.6474 28.5348 23.5341 28.4878C23.4209 28.4408 23.3181 28.3718 23.2318 28.2848L20.7425 25.7955C20.5776 25.6185 20.4878 25.3845 20.4921 25.1426C20.4964 24.9008 20.5943 24.6701 20.7654 24.499C20.9364 24.328 21.1671 24.23 21.409 24.2258C21.6508 24.2215 21.8848 24.3113 22.0618 24.4762L23.8914 26.3045L28.2103 21.9869C28.3873 21.822 28.6213 21.7322 28.8632 21.7365C29.105 21.7407 29.3358 21.8387 29.5068 22.0097C29.6778 22.1808 29.7758 22.4115 29.7801 22.6533C29.7843 22.8952 29.6945 23.1292 29.5297 23.3062L24.5511 28.2848C24.4647 28.3718 24.362 28.4408 24.2487 28.4878C24.1355 28.5348 24.014 28.5589 23.8914 28.5586Z" fill="#174EB6"/>
<path id="Vector_4" d="M25.1361 38.5144C24.6572 38.5151 24.1829 38.4212 23.7403 38.2382C23.2978 38.0552 22.8957 37.7865 22.5572 37.4477L21.1993 36.0886C21.0344 35.9228 20.8383 35.7914 20.6224 35.7018C20.4064 35.6123 20.1748 35.5665 19.941 35.5671H18.3503C17.3834 35.5661 16.4564 35.1816 15.7727 34.4979C15.089 33.8142 14.7045 32.8872 14.7035 31.9203V30.3309C14.7042 30.0972 14.6586 29.8656 14.5693 29.6496C14.48 29.4337 14.3488 29.2375 14.1832 29.0725L12.8241 27.7146C12.1413 27.0301 11.7578 26.1026 11.7578 25.1357C11.7578 24.1688 12.1413 23.2414 12.8241 22.5568L14.1832 21.1989C14.349 21.0341 14.4805 20.838 14.57 20.622C14.6595 20.406 14.7053 20.1744 14.7048 19.9406V18.3499C14.7057 17.3831 15.0903 16.4561 15.774 15.7724C16.4577 15.0887 17.3847 14.7041 18.3516 14.7031H19.941C20.1747 14.7039 20.4062 14.6583 20.6222 14.569C20.8382 14.4797 21.0343 14.3484 21.1993 14.1829L22.5572 12.8237C23.2418 12.1409 24.1692 11.7574 25.1361 11.7574C26.103 11.7574 27.0304 12.1409 27.715 12.8237L29.0729 14.1829C29.2378 14.3487 29.4339 14.4801 29.6499 14.5696C29.8659 14.6591 30.0974 14.7049 30.3312 14.7044H31.9219C32.8888 14.7054 33.8158 15.0899 34.4995 15.7736C35.1832 16.4573 35.5677 17.3843 35.5687 18.3512V19.9406C35.568 20.1743 35.6136 20.4059 35.7029 20.6218C35.7922 20.8378 35.9234 21.034 36.089 21.1989L37.4469 22.5568C38.1297 23.2414 38.5132 24.1688 38.5132 25.1357C38.5132 26.1026 38.1297 27.0301 37.4469 27.7146L36.089 29.0725C35.9232 29.2374 35.7917 29.4335 35.7022 29.6495C35.6127 29.8655 35.5669 30.0971 35.5675 30.3309V31.9215C35.5665 32.8884 35.1819 33.8154 34.4982 34.4991C33.8146 35.1828 32.8875 35.5673 31.9207 35.5683H30.3312C30.0974 35.5678 29.8659 35.6136 29.6499 35.7031C29.4339 35.7926 29.2378 35.9241 29.0729 36.0898L27.715 37.4477C27.3765 37.7865 26.9745 38.0552 26.5319 38.2382C26.0894 38.4212 25.615 38.5151 25.1361 38.5144ZM18.3503 16.5701C17.8784 16.5704 17.4259 16.7581 17.0921 17.0918C16.7584 17.4255 16.5708 17.878 16.5705 18.3499V19.9406C16.5722 20.4203 16.4786 20.8955 16.295 21.3386C16.1115 21.7818 15.8417 22.184 15.5013 22.522L14.1447 23.8787C13.8112 24.213 13.6239 24.666 13.6239 25.1382C13.6239 25.6105 13.8112 26.0635 14.1447 26.3978L15.5013 27.7545C15.8414 28.0921 16.111 28.494 16.2945 28.9367C16.4781 29.3794 16.5719 29.8541 16.5705 30.3334V31.924C16.5708 32.396 16.7584 32.8485 17.0921 33.1822C17.4259 33.5159 17.8784 33.7035 18.3503 33.7039H19.941C20.4202 33.7027 20.8948 33.7967 21.3375 33.9802C21.7802 34.1637 22.182 34.4332 22.5199 34.773L23.8765 36.1297C24.2109 36.4632 24.6639 36.6505 25.1361 36.6505C25.6084 36.6505 26.0613 36.4632 26.3957 36.1297L27.7523 34.773C28.0902 34.4332 28.4921 34.1637 28.9347 33.9802C29.3774 33.7967 29.8521 33.7027 30.3312 33.7039H31.9219C32.3938 33.7035 32.8464 33.5159 33.1801 33.1822C33.5138 32.8485 33.7014 32.396 33.7017 31.924V30.3309C33.7003 29.8516 33.7941 29.3769 33.9777 28.9342C34.1612 28.4915 34.4308 28.0897 34.7709 27.752L36.1275 26.3953C36.4611 26.061 36.6483 25.608 36.6483 25.1357C36.6483 24.6635 36.4611 24.2105 36.1275 23.8762L34.7709 22.522C34.431 22.1842 34.1616 21.7823 33.978 21.3396C33.7945 20.8969 33.7006 20.4223 33.7017 19.9431V18.3499C33.7014 17.878 33.5138 17.4255 33.1801 17.0918C32.8464 16.7581 32.3938 16.5704 31.9219 16.5701H30.3312C29.8516 16.5718 29.3764 16.4782 28.9332 16.2947C28.4901 16.1111 28.0878 15.8413 27.7499 15.501L26.3932 14.1443C26.0588 13.8108 25.6059 13.6235 25.1336 13.6235C24.6614 13.6235 24.2084 13.8108 23.874 14.1443L22.5224 15.501C22.1847 15.841 21.7828 16.1107 21.3401 16.2942C20.8974 16.4777 20.4227 16.5715 19.9435 16.5701H18.3503Z" fill="#174EB6"/>
<path id="Vector_5" d="M25.1357 33.5372C23.4741 33.5372 21.8498 33.0444 20.4682 32.1213C19.0866 31.1981 18.0098 29.886 17.3739 28.3509C16.738 26.8157 16.5716 25.1265 16.8958 23.4968C17.22 21.8671 18.0201 20.3701 19.1951 19.1952C20.37 18.0202 21.867 17.2201 23.4967 16.8959C25.1264 16.5718 26.8156 16.7381 28.3508 17.374C29.8859 18.0099 31.198 19.0867 32.1212 20.4683C33.0443 21.8499 33.5371 23.4742 33.5371 25.1358C33.5344 27.3632 32.6484 29.4986 31.0735 31.0736C29.4985 32.6486 27.3631 33.5345 25.1357 33.5372ZM25.1357 18.6015C23.8433 18.6015 22.58 18.9847 21.5054 19.7027C20.4308 20.4207 19.5933 21.4412 19.0987 22.6352C18.6042 23.8292 18.4748 25.1431 18.7269 26.4106C18.979 27.6782 19.6014 28.8425 20.5152 29.7563C21.4291 30.6702 22.5934 31.2925 23.8609 31.5447C25.1285 31.7968 26.4423 31.6674 27.6363 31.1728C28.8303 30.6782 29.8508 29.8407 30.5689 28.7661C31.2869 27.6916 31.6701 26.4282 31.6701 25.1358C31.6681 23.4034 30.979 21.7425 29.754 20.5175C28.529 19.2925 26.8681 18.6034 25.1357 18.6015Z" fill="#F4B045"/>
</g>
</g>
</svg>
