<svg width="38" height="38" viewBox="0 0 38 38" fill="none" xmlns="http://www.w3.org/2000/svg">
<g id="twitter (9) 1">
<path id="Vector" d="M36.403 6.25457C36.4032 5.97491 36.3292 5.70018 36.1887 5.45839C36.0482 5.21659 35.8461 5.01635 35.603 4.87807C35.3599 4.73979 35.0845 4.66841 34.8049 4.67118C34.5252 4.67396 34.2513 4.75081 34.011 4.89389C33.0842 5.4455 32.0865 5.86793 31.0454 6.14947C29.5586 4.87367 27.6624 4.17554 25.7032 4.18267C23.554 4.18515 21.4898 5.02278 19.9466 6.51869C18.4033 8.01461 17.5019 10.0517 17.4325 12.1998C13.1955 11.5242 9.35532 9.31268 6.64437 5.98707C6.48102 5.78889 6.27242 5.6329 6.03614 5.53225C5.79987 5.4316 5.54286 5.38925 5.28678 5.40876C5.03085 5.42983 4.78391 5.51293 4.5673 5.65087C4.3507 5.7888 4.17096 5.97743 4.04361 6.20042C3.39053 7.34013 3.01545 8.61779 2.94882 9.92966C2.88219 11.2415 3.1259 12.5506 3.66015 13.7506L3.65706 13.7537C3.41694 13.9016 3.21878 14.1086 3.08153 14.355C2.94427 14.6013 2.87252 14.8788 2.87312 15.1608C2.87021 15.3934 2.88417 15.626 2.91487 15.8566C3.07659 17.8488 3.95953 19.7137 5.39811 21.1014C5.30052 21.2873 5.24095 21.4908 5.2229 21.7C5.20485 21.9092 5.22866 22.1199 5.29296 22.3198C5.92014 24.2739 7.25392 25.9236 9.03328 26.9461C7.2255 27.6452 5.27353 27.8889 3.34935 27.6558C2.99322 27.6111 2.63247 27.6888 2.32628 27.8761C2.02009 28.0634 1.78665 28.3492 1.66424 28.6866C1.54183 29.024 1.53772 29.393 1.65259 29.7331C1.76746 30.0731 1.99449 30.364 2.29644 30.5581C5.60575 32.6895 9.45893 33.8227 13.3952 33.8222C17.8591 33.8724 22.2144 32.446 25.7836 29.7648C29.3529 27.0837 31.936 23.2981 33.1312 18.9969C33.6902 17.1233 33.9756 15.1787 33.9786 13.2234C33.9786 13.1198 33.9786 13.0131 33.977 12.9064C34.8037 12.0149 35.4441 10.9673 35.8606 9.8251C36.2772 8.68287 36.4616 7.46898 36.403 6.25457ZM31.1675 11.3401C30.906 11.6494 30.7736 12.0475 30.7979 12.4518C30.8134 12.7131 30.8118 12.9759 30.8118 13.2234C30.8086 14.8757 30.5664 16.5188 30.0928 18.1017C29.1167 21.7614 26.9407 24.9877 23.9132 27.2638C20.8858 29.54 17.1821 30.7343 13.3952 30.6555C12.035 30.6559 10.6794 30.4961 9.35651 30.1793C11.0434 29.6357 12.6207 28.7975 14.0153 27.7038C14.2721 27.5015 14.4601 27.2248 14.5534 26.9115C14.6467 26.5981 14.6408 26.2636 14.5365 25.9538C14.4321 25.644 14.2344 25.374 13.9706 25.181C13.7067 24.988 13.3896 24.8814 13.0627 24.8757C11.7467 24.8553 10.49 24.3248 9.55745 23.396C9.79403 23.3512 10.0291 23.2955 10.2625 23.229C10.6046 23.1317 10.9039 22.922 11.1122 22.6339C11.3206 22.3458 11.426 21.9959 11.4114 21.6406C11.3967 21.2853 11.2629 20.9452 11.0315 20.6752C10.8001 20.4052 10.4846 20.2209 10.1357 20.152C9.37184 20.0012 8.65302 19.6762 8.03516 19.2023C7.41729 18.7285 6.91702 18.1185 6.57324 17.4198C6.8594 17.4589 7.14738 17.4832 7.43603 17.4925C7.77896 17.4977 8.11464 17.3937 8.39454 17.1955C8.67445 16.9973 8.88406 16.7152 8.99308 16.3901C9.09755 16.0619 9.09217 15.7087 8.97777 15.3839C8.86337 15.0591 8.64618 14.7805 8.35913 14.5903C7.6627 14.1263 7.09222 13.4968 6.69878 12.7583C6.30534 12.0197 6.10123 11.1951 6.10473 10.3583C6.10473 10.2531 6.10782 10.148 6.11401 10.0444C9.66268 13.3539 14.2655 15.3049 19.1116 15.5536C19.3562 15.5632 19.5998 15.5171 19.824 15.4188C20.0482 15.3205 20.2472 15.1726 20.4058 14.9861C20.5628 14.7979 20.674 14.5757 20.7306 14.3372C20.7872 14.0987 20.7877 13.8503 20.732 13.6115C20.6414 13.2337 20.5952 12.8466 20.5944 12.458C20.5958 11.1035 21.1345 9.80494 22.0923 8.84718C23.05 7.88942 24.3486 7.35072 25.7031 7.34929C26.4 7.34742 27.0897 7.49005 27.7287 7.76816C28.3677 8.04627 28.9421 8.45382 29.4156 8.9651C29.5982 9.16156 29.8281 9.30804 30.0833 9.3906C30.3385 9.47315 30.6106 9.48904 30.8737 9.43676C31.5241 9.31018 32.1652 9.13971 32.7925 8.92651C32.3646 9.80205 31.8177 10.6143 31.1675 11.3401Z" fill="white"/>
</g>
</svg>
