<svg width="46" height="46" viewBox="0 0 46 46" fill="none" xmlns="http://www.w3.org/2000/svg">
<g id="logo (5) 1">
<path id="Vector" d="M28.3515 20.6529L21.3212 16.6043C20.91 16.3674 20.4438 16.2424 19.9693 16.2418C18.4696 16.2397 17.2523 17.4538 17.2502 18.9534V27.0468C17.2443 28.0157 17.7617 28.9123 18.6034 29.3921C19.017 29.6338 19.4871 29.7616 19.9661 29.7627C20.4427 29.7606 20.9104 29.6341 21.3231 29.3958L28.3515 25.3472C28.7654 25.109 29.109 24.7654 29.3472 24.3515C30.0936 23.0552 29.6478 21.3993 28.3515 20.6529ZM27.3933 23.6851L20.3669 27.7337C20.1188 27.8793 19.8116 27.8793 19.5638 27.7337C19.3165 27.5939 19.1645 27.3308 19.1669 27.0468V18.9534C19.1645 18.6693 19.3165 18.4062 19.5638 18.2664C19.6876 18.1958 19.8273 18.1578 19.9699 18.156C20.1091 18.1565 20.2455 18.1946 20.3647 18.2664L27.3933 22.315C27.5168 22.3852 27.619 22.4873 27.6891 22.6109C27.9041 22.9892 27.7717 23.4701 27.3933 23.6851ZM36.4168 7.66675H9.5835C6.40925 7.67026 3.83701 10.2425 3.8335 13.4167V32.5834C3.83701 35.7577 6.40925 38.3299 9.5835 38.3334H36.4168C39.5911 38.3299 42.1633 35.7577 42.1668 32.5834V13.4167C42.1633 10.2425 39.5911 7.67026 36.4168 7.66675ZM40.2502 32.5834C40.2475 34.6994 38.5328 36.4141 36.4168 36.4167H9.5835C7.46749 36.4141 5.75285 34.6994 5.75016 32.5834V13.4167C5.75285 11.3007 7.46749 9.58611 9.5835 9.58341H36.4168C38.5328 9.58611 40.2475 11.3007 40.2502 13.4167V32.5834Z" fill="white"/>
</g>
</svg>
