<svg width="16" height="16" viewBox="0 0 16 16" fill="none" xmlns="http://www.w3.org/2000/svg">
<g id="User--avatar--filled">
<rect width="16" height="16" fill="white" style="mix-blend-mode:multiply"/>
<path id="Vector" d="M13.3745 12.465C14.0923 11.6011 14.5916 10.577 14.83 9.47928C15.0683 8.38161 15.0389 7.24267 14.744 6.15879C14.4492 5.07491 13.8977 4.07799 13.1361 3.25233C12.3745 2.42668 11.4253 1.79658 10.3687 1.41534C9.31209 1.0341 8.17923 0.912926 7.06591 1.06207C5.95259 1.21122 4.89157 1.62629 3.97259 2.27219C3.0536 2.91809 2.30369 3.77581 1.78627 4.77281C1.26886 5.7698 0.999164 6.87675 1 8.00001C1.00039 9.63311 1.57591 11.2139 2.62555 12.465L2.61555 12.4733C2.65055 12.5156 2.69055 12.5517 2.72665 12.5929C2.77165 12.6447 2.81985 12.6929 2.86665 12.7433C3.00665 12.895 3.15035 13.0409 3.30165 13.1783C3.3474 13.2199 3.39485 13.2589 3.44165 13.2992C3.60165 13.4371 3.76585 13.5678 3.93665 13.6898C3.9587 13.7054 3.97825 13.7245 4.00045 13.7401V13.7338C5.17151 14.5578 6.56851 15.0001 8.00045 15.0001C9.4324 15.0001 10.8294 14.5578 12.0005 13.7338V13.74C12.0227 13.7244 12.0422 13.7053 12.0643 13.6897C12.2349 13.5677 12.3993 13.437 12.5593 13.2991C12.6061 13.2591 12.6535 13.2198 12.6993 13.1782C12.8505 13.0408 12.9943 12.8948 13.1343 12.7432C13.1809 12.6929 13.229 12.6446 13.2743 12.5928C13.3102 12.5516 13.3504 12.5155 13.3854 12.4732L13.3745 12.465ZM8 4.00001C8.44501 4.00001 8.88002 4.13197 9.25004 4.3792C9.62005 4.62643 9.90843 4.97784 10.0787 5.38897C10.249 5.8001 10.2936 6.2525 10.2068 6.68896C10.12 7.12542 9.90566 7.52633 9.59099 7.841C9.27632 8.15567 8.87541 8.36996 8.43896 8.45677C8.0025 8.54359 7.5501 8.49903 7.13896 8.32874C6.72783 8.15844 6.37643 7.87005 6.1292 7.50004C5.88196 7.13003 5.75 6.69502 5.75 6.25001C5.75 5.65327 5.98705 5.08097 6.40901 4.65902C6.83097 4.23706 7.40326 4.00001 8 4.00001ZM4.00355 12.465C4.01219 11.8085 4.27897 11.1818 4.74617 10.7204C5.21337 10.2591 5.84343 10.0003 6.5 10H9.5C10.1566 10.0003 10.7866 10.2591 11.2538 10.7205C11.721 11.1818 11.9878 11.8085 11.9965 12.465C10.8999 13.4531 9.47611 14 8 14C6.5239 14 5.10013 13.4531 4.00355 12.465Z" fill="#B9D0FF"/>
</g>
</svg>
